<?xml version="1.0" encoding="UTF-8"?>
<svg id="Capa_1" data-name="Capa 1" xmlns="http://www.w3.org/2000/svg" viewBox="0 0 40 39.97">
  <defs>
    <style>
      .cls-1 {
        fill: #fff8f2;
      }
    </style>
  </defs>
  <path class="cls-1" d="m13.34,20.01c0-3.68,2.97-6.67,6.65-6.68,3.68,0,6.67,2.97,6.68,6.65,0,3.68-2.97,6.67-6.65,6.68-3.68,0-6.67-2.97-6.68-6.65h0Zm-3.6,0c0,5.67,4.61,10.26,10.28,10.26,5.67,0,10.26-4.61,10.26-10.28s-4.61-10.26-10.28-10.26c0,0,0,0,0,0-5.67.01-10.26,4.62-10.25,10.29h0Zm18.53-10.72c0,1.33,1.08,2.4,2.4,2.4,1.33,0,2.4-1.08,2.4-2.4,0-1.33-1.08-2.4-2.4-2.4-1.33,0-2.4,1.08-2.4,2.41h0Zm-16.31,26.99c-1.27-.01-2.52-.24-3.71-.68-.87-.33-1.66-.84-2.3-1.51-.67-.64-1.18-1.43-1.5-2.3-.44-1.19-.68-2.44-.69-3.71-.1-2.11-.12-2.74-.13-8.08s0-5.97.1-8.08c.01-1.27.24-2.52.68-3.71.33-.86.84-1.64,1.51-2.29.64-.67,1.43-1.18,2.3-1.5,1.19-.44,2.44-.68,3.71-.69,2.11-.1,2.74-.12,8.08-.13s5.97,0,8.08.1c1.27.01,2.52.24,3.71.68,1.74.67,3.12,2.05,3.79,3.79.44,1.19.68,2.44.69,3.71.1,2.11.12,2.74.13,8.08s0,5.97-.1,8.08c-.01,1.27-.24,2.52-.68,3.71-.33.87-.84,1.66-1.51,2.3-.64.67-1.43,1.18-2.3,1.5-1.19.44-2.44.68-3.71.69-2.11.1-2.74.12-8.08.13s-5.97,0-8.08-.1h.02ZM11.72.14c-1.66.04-3.3.35-4.85.94-1.33.5-2.54,1.29-3.54,2.31-1.01,1-1.8,2.21-2.3,3.55-.58,1.56-.89,3.2-.92,4.85-.11,2.14-.11,2.82-.11,8.25s.04,6.11.14,8.24c.04,1.66.35,3.3.94,4.85.51,1.33,1.29,2.54,2.31,3.54,1,1.01,2.21,1.8,3.55,2.3,1.55.58,3.19.89,4.85.92,2.13.09,2.81.11,8.24.1s6.11-.03,8.24-.13c1.66-.04,3.3-.35,4.86-.94,2.69-1.04,4.8-3.17,5.84-5.86.58-1.55.89-3.19.92-4.85.1-2.13.12-2.81.11-8.24s-.03-6.11-.13-8.24c-.04-1.66-.35-3.3-.94-4.86-1.04-2.69-3.17-4.8-5.86-5.84-1.55-.58-3.19-.89-4.85-.92-2.13-.11-2.82-.11-8.25-.11s-6.11.04-8.24.14Z"/>
</svg>