<?xml version="1.0" encoding="UTF-8"?>
<svg id="Capa_1" data-name="Capa 1" xmlns="http://www.w3.org/2000/svg" viewBox="0 0 42 41.94">
  <defs>
    <style>
      .cls-1 {
        fill: #fff8f2;
        fill-rule: evenodd;
      }
    </style>
  </defs>
  <path class="cls-1" d="m37.35,0H4.65C2.07,0,0,2.07,0,4.65h0v32.63c0,2.58,2.07,4.65,4.65,4.65h32.7c2.58,0,4.65-2.07,4.65-4.65h0V4.65c0-2.58-2.07-4.65-4.65-4.65h0ZM12.73,36.18h-6.27V15.96h6.27v20.22Zm-3.17-22.87c-2.07,0-3.75-1.68-3.75-3.75s1.68-3.75,3.68-3.75,3.75,1.68,3.75,3.75h0c0,2.07-1.62,3.75-3.68,3.75h0Zm26.62,22.87h-6.2v-10.66c0-2.91-1.1-4.52-3.42-4.52-2.52,0-3.81,1.68-3.81,4.52v10.66h-6.01V15.96h6.01v2.71c1.29-2.13,3.62-3.36,6.07-3.36,4.26,0,7.37,2.65,7.37,8.01v12.86Z"/>
</svg>