<?xml version="1.0" encoding="UTF-8"?>
<svg id="Capa_1" data-name="Capa 1" xmlns="http://www.w3.org/2000/svg" viewBox="0 0 64.58 40">
  <defs>
    <style>
      .cls-1 {
        fill: #fff8f2;
      }
    </style>
  </defs>
  <path class="cls-1" d="m26.67,18.57l.69.3c2.77,1.19,4.64,3.65,5.14,6.62.59,2.57.2,5.33-.89,7.7-1.78,3.56-4.54,5.73-8.49,6.42-1.78.3-3.56.4-5.33.4H.59q-.59,0-.59-.59V.49c0-.4.1-.49.49-.49h18.57c2.37,0,4.74.3,7.01,1.38,3.16,1.48,4.94,4.05,5.33,7.6.2,1.48.1,2.86-.3,4.35-.49,2.07-1.88,3.75-3.65,4.84l-.79.4q.1-.1,0,0Zm-17.48,9.09h0v4.94c0,.4.1.49.49.4h8.2c.79,0,1.58-.1,2.27-.2,1.68-.3,3.06-1.19,3.75-2.86.49-1.28.59-2.67.3-4.05-.3-1.28-1.09-2.37-2.27-2.86-.99-.49-2.17-.69-3.26-.69h-8.99c-.3,0-.4.1-.4.4-.1,1.68-.1,3.36-.1,4.94Zm4.84-11.95h3.75c1.09,0,2.27-.2,3.26-.59.99-.3,1.78-1.09,2.17-2.07.4-1.09.4-2.27.1-3.36-.3-1.09-1.19-1.98-2.27-2.17-.99-.3-1.98-.4-2.96-.49-2.86-.1-5.63-.1-8.49-.1-.3,0-.4.2-.4.49v7.9c0,.3.1.4.4.4h4.44Z"/>
  <path class="cls-1" d="m63.8,30.32c-.1,1.09-.49,2.07-1.09,2.96-1.88,3.06-4.84,5.14-8.3,5.83-3.16.79-6.52.59-9.68-.49-2.57-.89-4.74-2.27-6.42-4.54-1.28-1.78-2.07-3.75-2.27-5.93-.4-2.57-.4-5.23.1-7.8.69-3.65,2.27-6.62,5.33-8.79,1.98-1.38,4.25-2.17,6.72-2.37,2.37-.3,4.74,0,7.11.69,4.25,1.38,6.81,4.44,8.2,8.59.49,1.88.79,3.75.69,5.73v1.68c0,.3-.1.4-.4.4h-19.95c-.4,0-.4.1-.4.4.1,1.58.49,3.16,1.58,4.44s2.57,2.07,4.25,2.17c1.28.2,2.67.1,3.85-.3,1.19-.49,2.27-1.28,2.86-2.47.1-.3.4-.4.69-.4h6.72c.1.2.2.2.4.2Zm-7.41-8.79c-.1-1.78-.59-3.26-1.98-4.44-1.58-1.38-3.46-1.68-5.53-1.48-1.88.2-3.56,1.28-4.44,2.96-.49.89-.79,1.98-.89,2.96h12.84Z"/>
  <path class="cls-1" d="m41.88,1.68h16v3.46c0,.4-.1.49-.49.49h-15.11c-.4,0-.49-.1-.49-.49v-3.06c.1-.1.1-.3.1-.4Z"/>
</svg>