<?xml version="1.0" encoding="UTF-8"?>
<svg id="Capa_1" data-name="Capa 1" xmlns="http://www.w3.org/2000/svg" viewBox="0 0 65 40.5">
  <defs>
    <style>
      .cls-1 {
        fill: #ff4d00;
      }
    </style>
  </defs>
  <path class="cls-1" d="m27,18.8l.7.3c2.8,1.2,4.7,3.7,5.2,6.7.6,2.6.2,5.4-.9,7.8-1.8,3.6-4.6,5.8-8.6,6.5-1.8.3-3.6.4-5.4.4H.6q-.6,0-.6-.6V.5C0,.1.1,0,.5,0h18.8c2.4,0,4.8.3,7.1,1.4,3.2,1.5,5,4.1,5.4,7.7.2,1.5.1,2.9-.3,4.4-.5,2.1-1.9,3.8-3.7,4.9l-.8.4q.1-.1,0,0Zm-17.7,9.2h0v5c0,.4.1.5.5.4h8.3c.8,0,1.6-.1,2.3-.2,1.7-.3,3.1-1.2,3.8-2.9.5-1.3.6-2.7.3-4.1-.3-1.3-1.1-2.4-2.3-2.9-1-.5-2.2-.7-3.3-.7h-9.1c-.3,0-.4.1-.4.4-.1,1.7-.1,3.4-.1,5Zm4.9-12.1h3.8c1.1,0,2.3-.2,3.3-.6,1-.3,1.8-1.1,2.2-2.1.4-1.1.4-2.3.1-3.4-.3-1.1-1.2-2-2.3-2.2-1-.3-2-.4-3-.5-2.9-.1-5.7-.1-8.6-.1-.3,0-.4.2-.4.5v8c0,.3.1.4.4.4h4.5Z"/>
  <path class="cls-1" d="m64.6,30.7c-.1,1.1-.5,2.1-1.1,3-1.9,3.1-4.9,5.2-8.4,5.9-3.2.8-6.6.6-9.8-.5-2.6-.9-4.8-2.3-6.5-4.6-1.3-1.8-2.1-3.8-2.3-6-.4-2.6-.4-5.3.1-7.9.7-3.7,2.3-6.7,5.4-8.9,2-1.4,4.3-2.2,6.8-2.4,2.4-.3,4.8,0,7.2.7,4.3,1.4,6.9,4.5,8.3,8.7.5,1.9.8,3.8.7,5.8v1.7c0,.3-.1.4-.4.4h-20.2c-.4,0-.4.1-.4.4.1,1.6.5,3.2,1.6,4.5s2.6,2.1,4.3,2.2c1.3.2,2.7.1,3.9-.3,1.2-.5,2.3-1.3,2.9-2.5.1-.3.4-.4.7-.4h6.8c.1.2.2.2.4.2Zm-7.5-8.9c-.1-1.8-.6-3.3-2-4.5-1.6-1.4-3.5-1.7-5.6-1.5-1.9.2-3.6,1.3-4.5,3-.5.9-.8,2-.9,3h13Z"/>
  <path class="cls-1" d="m42.4,1.7h16.2v3.5c0,.4-.1.5-.5.5h-15.3c-.4,0-.5-.1-.5-.5v-3.1c.1-.1.1-.3.1-.4Z"/>
</svg>