<svg id="Capa_1" data-name="Capa 1" xmlns="http://www.w3.org/2000/svg" viewBox="0 0 150 132.16"><defs><style>.cls-1{fill:#fc2683;}</style></defs><path class="cls-1" d="M62.5,61.35l1.58.71a20.12,20.12,0,0,1,12,15.38,28,28,0,0,1-2.13,18c-4.07,8.33-10.65,13.37-19.86,15a72.85,72.85,0,0,1-12.42,1H1.45c-1.29,0-1.29,0-1.29-1.29q0-45.42,0-90.83c0-.94.2-1.25,1.21-1.25,14.43,0,28.87,0,43.3,0,5.61,0,11.12.71,16.27,3.14,7.48,3.53,11.55,9.54,12.53,17.7A27.29,27.29,0,0,1,72.86,49a17.55,17.55,0,0,1-8.65,11.23l-1.56.94S62.58,61.25,62.5,61.35ZM21.68,82.74h0c0,3.8,0,7.61,0,11.42,0,.87.28,1.06,1.1,1,6.37,0,12.73,0,19.1,0a34.22,34.22,0,0,0,5.34-.5C51.24,94,54.37,92,55.9,88a16.06,16.06,0,0,0,.7-9.35A9.23,9.23,0,0,0,51.29,72a17.85,17.85,0,0,0-7.63-1.64c-7-.07-14,0-21-.07-.76,0-1,.24-1,1C21.7,75.12,21.68,78.93,21.68,82.74ZM32.86,54.85c2.94,0,5.89,0,8.83,0a20.63,20.63,0,0,0,7.7-1.35,7.89,7.89,0,0,0,5-4.94,13,13,0,0,0,.12-7.94,7,7,0,0,0-5.27-5.09,35.46,35.46,0,0,0-7-1.11c-6.55-.17-13.11-.09-19.67-.15-.81,0-1,.34-1,1q0,9.26,0,18.53c0,.79.24,1,1,1C26.08,54.83,29.47,54.85,32.86,54.85Z"/><path class="cls-1" d="M149.15,89a16.45,16.45,0,0,1-2.59,7,29.74,29.74,0,0,1-19.35,13.72,39.84,39.84,0,0,1-22.5-1.17c-5.9-2.16-11.12-5.37-14.94-10.51a30.29,30.29,0,0,1-5.34-13.82,55.62,55.62,0,0,1,.2-18.16c1.52-8.44,5.37-15.48,12.5-20.5a31.81,31.81,0,0,1,15.63-5.57,40.43,40.43,0,0,1,16.51,1.63c10,3.23,16,10.35,19.15,20.15a45.74,45.74,0,0,1,1.67,13.38c0,1.28,0,2.56,0,3.84,0,.77-.28,1-1,1q-10.66,0-21.32,0-12.68,0-25.35,0c-.81,0-1,.23-1,1,.32,3.77,1.19,7.34,3.71,10.29A14.88,14.88,0,0,0,115,96.39a18.73,18.73,0,0,0,9.09-.8,12.5,12.5,0,0,0,6.67-5.78,1.49,1.49,0,0,1,1.52-.86c5.25,0,10.5,0,15.74,0C148.41,89,148.75,89,149.15,89ZM131.9,68.36c-.26-4.11-1.47-7.72-4.62-10.44-3.73-3.23-8.13-4-12.92-3.48a12.82,12.82,0,0,0-10.28,7,17.92,17.92,0,0,0-2.16,7Z"/><path class="cls-1" d="M98,22h37.48c0,.37,0,.68,0,1,0,2.4,0,4.8,0,7.2,0,.84-.22,1.1-1.07,1.09-4.39,0-8.77,0-13.15,0-7.39,0-14.78,0-22.17,0-1,0-1.24-.29-1.21-1.25.06-2.36,0-4.73,0-7.1C98,22.64,98,22.33,98,22Z"/></svg>