<?xml version="1.0" encoding="UTF-8"?>
<svg id="Capa_1" data-name="Capa 1" xmlns="http://www.w3.org/2000/svg" viewBox="0 0 100 62.69">
  <defs>
    <style>
      .cls-1 {
        fill: #ff4d00;
      }
    </style>
  </defs>
  <path class="cls-1" d="m41.53,29.12l1.08.46c4.31,1.85,7.23,5.69,8,10.3.92,4,.31,8.31-1.38,12-2.77,5.54-7.07,8.92-13.23,10-2.77.46-5.54.62-8.31.62H.92c-.62,0-.92-.31-.92-.92V.97C0,.36.15.2.77.2h28.91c3.69,0,7.38.46,10.92,2.15,4.92,2.31,7.69,6.31,8.31,11.84.31,2.31.15,4.46-.46,6.77-.77,3.23-2.92,5.84-5.69,7.54l-1.23.62q.1-.1,0,0Zm-27.22,14.15h0v7.69c0,.62.15.77.77.62h12.77c1.23,0,2.46-.15,3.54-.31,2.61-.46,4.77-1.85,5.84-4.46.77-2,.92-4.15.46-6.31-.46-2-1.69-3.69-3.54-4.46-1.54-.77-3.38-1.08-5.08-1.08h-14c-.46,0-.62.15-.62.62-.15,2.61-.15,5.23-.15,7.69Zm7.54-18.61h5.84c1.69,0,3.54-.31,5.08-.92,1.54-.46,2.77-1.69,3.38-3.23.62-1.69.62-3.54.15-5.23-.46-1.69-1.85-3.08-3.54-3.38-1.54-.46-3.08-.62-4.61-.77-4.46-.15-8.77-.15-13.23-.15-.46,0-.62.31-.62.77v12.3c0,.46.15.62.62.62h6.92Z"/>
  <path class="cls-1" d="m99.36,47.42c-.15,1.69-.77,3.23-1.69,4.61-2.92,4.77-7.54,8-12.92,9.07-4.92,1.23-10.15.92-15.07-.77-4-1.38-7.38-3.54-10-7.07-2-2.77-3.23-5.84-3.54-9.23-.62-4-.62-8.15.15-12.15,1.08-5.69,3.54-10.3,8.31-13.69,3.08-2.15,6.61-3.38,10.46-3.69,3.69-.46,7.38,0,11.07,1.08,6.61,2.15,10.61,6.92,12.77,13.38.77,2.92,1.23,5.84,1.08,8.92v2.61c0,.46-.15.62-.62.62h-31.07c-.62,0-.62.15-.62.62.15,2.46.77,4.92,2.46,6.92s4,3.23,6.61,3.38c2,.31,4.15.15,6-.46,1.85-.77,3.54-2,4.46-3.85.15-.46.62-.62,1.08-.62h10.46c.15.31.31.31.62.31Zm-11.54-13.69c-.15-2.77-.92-5.08-3.08-6.92-2.46-2.15-5.38-2.61-8.61-2.31-2.92.31-5.54,2-6.92,4.61-.77,1.38-1.23,3.08-1.38,4.61h19.99Z"/>
  <path class="cls-1" d="m65.21,2.82h24.92v5.38c0,.62-.15.77-.77.77h-23.53c-.62,0-.77-.15-.77-.77V3.43c.15-.15.15-.46.15-.62Z"/>
</svg>