<svg id="Capa_1" data-name="Capa 1" xmlns="http://www.w3.org/2000/svg" viewBox="0 0 95 95"><defs><style>.cls-1{fill:#fc2683;}</style></defs><path class="cls-1" d="M31.67,47.53a15.83,15.83,0,1,1,15.86,15.8A15.83,15.83,0,0,1,31.67,47.53Zm-8.56,0A24.39,24.39,0,1,0,47.45,23.11,24.4,24.4,0,0,0,23.11,47.55Zm44-25.44a5.7,5.7,0,1,0,5.69-5.71A5.72,5.72,0,0,0,67.1,22.11ZM28.38,86.2a26.15,26.15,0,0,1-8.82-1.62A14.89,14.89,0,0,1,14.09,81a14.69,14.69,0,0,1-3.56-5.46,26.07,26.07,0,0,1-1.65-8.81c-.24-5-.29-6.51-.32-19.2s0-14.18.24-19.19a26.36,26.36,0,0,1,1.62-8.82A14.89,14.89,0,0,1,14,14.09a14.57,14.57,0,0,1,5.46-3.56,26.07,26.07,0,0,1,8.81-1.65c5-.24,6.51-.29,19.19-.32s14.19,0,19.2.24a26.36,26.36,0,0,1,8.82,1.62,15.68,15.68,0,0,1,9,9,26.13,26.13,0,0,1,1.65,8.81c.24,5,.29,6.51.32,19.19s0,14.19-.24,19.2a26.36,26.36,0,0,1-1.62,8.82A14.89,14.89,0,0,1,81,80.91a14.69,14.69,0,0,1-5.46,3.56,26.13,26.13,0,0,1-8.81,1.65c-5,.24-6.51.29-19.2.32s-14.18,0-19.19-.24ZM27.83.33A34.74,34.74,0,0,0,16.31,2.56,23.33,23.33,0,0,0,7.9,8.05a23.45,23.45,0,0,0-5.46,8.42A35.1,35.1,0,0,0,.25,28C0,33.08,0,34.69,0,47.59S.09,62.11.33,67.17A34.86,34.86,0,0,0,2.56,78.7a23.38,23.38,0,0,0,5.49,8.4,23.4,23.4,0,0,0,8.43,5.46A35,35,0,0,0,28,94.75c5.07.22,6.68.27,19.58.24s14.52-.08,19.58-.32A34.86,34.86,0,0,0,78.7,92.44,24.24,24.24,0,0,0,92.56,78.52,34.49,34.49,0,0,0,94.74,67c.23-5.06.28-6.68.25-19.58s-.08-14.52-.32-19.58A34.86,34.86,0,0,0,92.44,16.3,24.24,24.24,0,0,0,78.52,2.44,34.49,34.49,0,0,0,67,.26C61.93,0,60.31,0,47.41,0S32.89.09,27.83.33Z"/></svg>