<?xml version="1.0" encoding="UTF-8"?>
<svg id="Capa_1" data-name="Capa 1" xmlns="http://www.w3.org/2000/svg" viewBox="0 0 64.99 65">
  <defs>
    <style>
      .cls-1 {
        fill: #ff4d00;
      }
    </style>
  </defs>
  <path class="cls-1" d="m21.67,32.52c-.01-5.98,4.83-10.84,10.81-10.85,5.98-.01,10.84,4.83,10.85,10.81.01,5.98-4.83,10.84-10.81,10.85-5.98.01-10.84-4.83-10.85-10.81h0Zm-5.86,0c.01,9.22,7.49,16.68,16.71,16.67,9.22-.01,16.68-7.49,16.67-16.71s-7.49-16.68-16.71-16.67c0,0,0,0-.01,0-9.22.02-16.67,7.51-16.65,16.72h0Zm30.11-17.42c0,2.15,1.75,3.9,3.91,3.89,2.15,0,3.9-1.75,3.89-3.91,0-2.15-1.75-3.9-3.91-3.89-2.16,0-3.9,1.76-3.9,3.92h0Zm-26.5,43.85c-2.06-.02-4.1-.39-6.03-1.11-1.41-.53-2.69-1.37-3.74-2.45-1.08-1.05-1.91-2.32-2.44-3.74-.72-1.93-1.1-3.97-1.13-6.03-.16-3.42-.2-4.45-.22-13.14s0-9.7.16-13.13c.02-2.06.4-4.1,1.11-6.03.53-1.4,1.37-2.67,2.45-3.72,1.05-1.08,2.32-1.92,3.74-2.44,1.93-.72,3.97-1.1,6.03-1.13,3.42-.16,4.45-.2,13.13-.22s9.71,0,13.14.16c2.06.02,4.1.4,6.03,1.11,2.83,1.09,5.07,3.33,6.16,6.16.72,1.93,1.1,3.97,1.13,6.03.16,3.42.2,4.45.22,13.13s0,9.71-.16,13.14c-.02,2.06-.4,4.1-1.11,6.03-.53,1.41-1.37,2.69-2.46,3.74-1.05,1.08-2.32,1.91-3.74,2.44-1.93.72-3.97,1.1-6.03,1.13-3.42.16-4.45.2-13.14.22s-9.7,0-13.13-.16h.03ZM19.04.23c-2.69.06-5.36.57-7.88,1.53-2.17.82-4.13,2.1-5.75,3.76-1.65,1.63-2.92,3.59-3.74,5.76-.94,2.53-1.45,5.19-1.5,7.89-.17,3.48-.17,4.58-.17,13.4s.06,9.93.23,13.4c.06,2.7.57,5.36,1.53,7.89.82,2.17,2.1,4.13,3.76,5.75,1.63,1.65,3.6,2.92,5.77,3.74,2.52.94,5.19,1.45,7.88,1.5,3.47.15,4.57.18,13.4.16s9.93-.05,13.4-.22c2.7-.06,5.37-.57,7.9-1.53,4.36-1.69,7.81-5.15,9.48-9.52.94-2.52,1.45-5.19,1.49-7.88.16-3.46.19-4.57.17-13.4s-.05-9.93-.22-13.4c-.06-2.7-.57-5.37-1.53-7.9-1.69-4.36-5.15-7.81-9.52-9.48-2.52-.94-5.19-1.45-7.88-1.49-3.47-.18-4.58-.18-13.4-.18s-9.93.06-13.4.23Z"/>
</svg>