<?xml version="1.0" encoding="UTF-8"?>
<svg id="Capa_1" data-name="Capa 1" xmlns="http://www.w3.org/2000/svg" viewBox="0 0 100 100">
  <defs>
    <style>
      .cls-1 {
        fill: #ff4d00;
      }
    </style>
  </defs>
  <path class="cls-1" d="m33.33,50.01c-.02-9.2,7.43-16.67,16.63-16.69,9.2-.02,16.67,7.43,16.69,16.63.02,9.2-7.43,16.67-16.63,16.69-9.2.02-16.67-7.43-16.69-16.63h0Zm-9.01,0c.02,14.18,11.52,25.66,25.7,25.64,14.18-.02,25.66-11.52,25.64-25.7-.02-14.18-11.52-25.66-25.7-25.64h-.02c-14.18.03-25.64,11.55-25.61,25.72h0l-.02-.02Zm46.31-26.79c0,3.31,2.69,6,6.01,5.98,3.31,0,6-2.69,5.98-6.01,0-3.31-2.69-6-6.01-5.98-3.32,0-6,2.71-6,6.03h0l.02-.02ZM29.87,90.66c-3.17-.03-6.31-.6-9.27-1.71-2.17-.82-4.14-2.11-5.75-3.77-1.66-1.61-2.94-3.57-3.75-5.75-1.11-2.97-1.69-6.11-1.74-9.27-.25-5.26-.31-6.84-.34-20.21-.03-13.37,0-14.92.25-20.2.03-3.17.62-6.31,1.71-9.27.82-2.15,2.11-4.11,3.77-5.72,1.62-1.66,3.57-2.95,5.75-3.75,2.97-1.11,6.11-1.69,9.27-1.74,5.26-.25,6.84-.31,20.2-.34s14.93,0,20.21.25c3.17.03,6.31.62,9.27,1.71,4.35,1.68,7.8,5.12,9.47,9.47,1.11,2.97,1.69,6.11,1.74,9.27.25,5.26.31,6.84.34,20.2s0,14.93-.25,20.21c-.03,3.17-.62,6.31-1.71,9.27-.82,2.17-2.11,4.14-3.78,5.75-1.61,1.66-3.57,2.94-5.75,3.75-2.97,1.11-6.11,1.69-9.27,1.74-5.26.25-6.84.31-20.21.34-13.37.03-14.92,0-20.2-.25h.05v.02ZM29.29.35c-4.14.09-8.24.88-12.12,2.35-3.34,1.26-6.35,3.23-8.84,5.78-2.54,2.51-4.49,5.52-5.75,8.86-1.45,3.89-2.23,7.98-2.31,12.14C0,34.83,0,36.52,0,50.09s.09,15.27.35,20.61c.09,4.15.88,8.24,2.35,12.14,1.26,3.34,3.23,6.35,5.78,8.84,2.51,2.54,5.54,4.49,8.87,5.75,3.88,1.45,7.98,2.23,12.12,2.31,5.34.23,7.03.28,20.61.25s15.27-.08,20.61-.34c4.15-.09,8.26-.88,12.15-2.35,6.71-2.6,12.01-7.92,14.58-14.64,1.45-3.88,2.23-7.98,2.29-12.12.25-5.32.29-7.03.26-20.61s-.08-15.27-.34-20.61c-.09-4.15-.88-8.26-2.35-12.15-2.6-6.71-7.92-12.01-14.64-14.58-3.88-1.45-7.98-2.23-12.12-2.29C65.2,0,63.49,0,49.93,0s-15.27.09-20.61.35l-.03-.02Z"/>
</svg>