<svg id="Capa_1" data-name="Capa 1" xmlns="http://www.w3.org/2000/svg" viewBox="0 0 95 95"><defs><style>.cls-1{fill:#fc2683;fill-rule:evenodd;}</style></defs><path class="cls-1" d="M84.45,0H10.55A10.55,10.55,0,0,0,0,10.56V84.44A10.55,10.55,0,0,0,10.55,95h73.9A10.55,10.55,0,0,0,95,84.44V10.56A10.55,10.55,0,0,0,84.45,0ZM28.72,81.8H14.56V36.07H28.72ZM21.57,30.08A8.44,8.44,0,1,1,30,21.64,8.41,8.41,0,0,1,21.57,30.08ZM81.81,81.8H67.71v-24c0-6.58-2.5-10.26-7.71-10.26-5.67,0-8.64,3.83-8.64,10.26v24H37.78V36.07H51.36v6.16a16,16,0,0,1,13.8-7.56c9.7,0,16.65,5.92,16.65,18.18Z"/></svg>