<?xml version="1.0" encoding="UTF-8"?>
<svg id="Capa_1" data-name="Capa 1" xmlns="http://www.w3.org/2000/svg" viewBox="0 0 100 100">
  <defs>
    <style>
      .cls-1 {
        fill: #ff4d00;
        fill-rule: evenodd;
      }
    </style>
  </defs>
  <path class="cls-1" d="m88.92.08H11.08C4.92.08,0,5,0,11.15h0v77.69c0,6.15,4.92,11.08,11.08,11.08h77.85c6.15,0,11.08-4.92,11.08-11.08h0V11.15c0-6.15-4.92-11.08-11.08-11.08h0ZM30.31,86.23h-14.92v-48.15h14.92v48.15Zm-7.54-54.46c-4.92,0-8.92-4-8.92-8.92s4-8.92,8.77-8.92,8.92,4,8.92,8.92h0c0,4.92-3.85,8.92-8.77,8.92h0Zm63.38,54.46h-14.77v-25.38c0-6.92-2.62-10.77-8.15-10.77-6,0-9.08,4-9.08,10.77v25.38h-14.31v-48.15h14.31v6.46c3.08-5.08,8.62-8,14.46-8,10.15,0,17.54,6.31,17.54,19.08v30.62Z"/>
</svg>