<?xml version="1.0" encoding="UTF-8"?>
<svg id="Capa_1" data-name="Capa 1" xmlns="http://www.w3.org/2000/svg" viewBox="0 0 65 65">
  <defs>
    <style>
      .cls-1 {
        fill: #ff4d00;
        fill-rule: evenodd;
      }
    </style>
  </defs>
  <path class="cls-1" d="m57.8,0H7.2C3.2,0,0,3.2,0,7.2h0v50.5c0,4,3.2,7.2,7.2,7.2h50.6c4,0,7.2-3.2,7.2-7.2h0V7.2c0-4-3.2-7.2-7.2-7.2h0ZM19.7,56h-9.7v-31.3h9.7v31.3Zm-4.9-35.4c-3.2,0-5.8-2.6-5.8-5.8s2.6-5.8,5.7-5.8,5.8,2.6,5.8,5.8h0c0,3.2-2.5,5.8-5.7,5.8h0Zm41.2,35.4h-9.6v-16.5c0-4.5-1.7-7-5.3-7-3.9,0-5.9,2.6-5.9,7v16.5h-9.3v-31.3h9.3v4.2c2-3.3,5.6-5.2,9.4-5.2,6.6,0,11.4,4.1,11.4,12.4v19.9Z"/>
</svg>