<svg id="Capa_1" data-name="Capa 1" xmlns="http://www.w3.org/2000/svg" viewBox="0 0 100 100"><defs><style>.cls-1{fill:#de0060;}</style></defs><path class="cls-1" d="M45.31,54.57a3.86,3.86,0,0,0-1.37,1.13,59.13,59.13,0,0,1-6.88,5.49,67.63,67.63,0,0,1-11.62,6.73,31.86,31.86,0,0,1-10.25,2.62,16.26,16.26,0,0,1-6.88-.75,11.82,11.82,0,0,1-6.87-5.12A9.37,9.37,0,0,1,.19,57.82a12.53,12.53,0,0,1,4.87-7.48A20.92,20.92,0,0,1,11.44,47a35.94,35.94,0,0,1,13.12-1.74A74.63,74.63,0,0,1,39.44,47.1a36.84,36.84,0,0,0,3.87.75l-2.12-.75A82.62,82.62,0,0,1,29.43,42a60.74,60.74,0,0,1-7.5-4.74,31.35,31.35,0,0,1-8.5-9.1,15.24,15.24,0,0,1-2.37-9,10,10,0,0,1,2.25-6,8.77,8.77,0,0,1,4.87-3,13,13,0,0,1,9.38,1.25,26.19,26.19,0,0,1,7,5.24A48.93,48.93,0,0,1,41.81,26.9,73.06,73.06,0,0,1,46.93,39c.37,1.12.75,2.37,1.12,3.49l.38.75c-.25-1-.38-2-.63-2.87-.62-3-1-6-1.37-9a69.59,69.59,0,0,1-.25-10.1,36.87,36.87,0,0,1,1.87-9.85,22.71,22.71,0,0,1,3.13-6A12.85,12.85,0,0,1,58.93.22a9.28,9.28,0,0,1,8,2,13.22,13.22,0,0,1,4.5,8,19.49,19.49,0,0,1-.37,8.47,43.31,43.31,0,0,1-5.88,13.47,67.48,67.48,0,0,1-4.37,6.11c-1.75,2.12-3.5,4.24-5.5,6.24,0,.12-.12.12-.12.25a.74.74,0,0,0,.5-.13,57.94,57.94,0,0,1,6-5,64.84,64.84,0,0,1,10.75-6.73,51.14,51.14,0,0,1,7.25-2.74c4.37-1.13,8.75-1.5,13.13.25A10.82,10.82,0,0,1,98.44,35a9.89,9.89,0,0,1,.12,10.47,16,16,0,0,1-7,6.23,31.27,31.27,0,0,1-10.5,2.75,61,61,0,0,1-13.5-.38,93.73,93.73,0,0,1-10.25-2h-.38a22.47,22.47,0,0,0,2.63.87c3.12,1.12,6.12,2.37,9.12,3.74a56.88,56.88,0,0,1,8.37,5,33.83,33.83,0,0,1,6,5.24,19,19,0,0,1,2.38,3,17.5,17.5,0,0,1,3.12,6.74,12,12,0,0,1-.37,7.23,9.24,9.24,0,0,1-7.13,5.86c-3.75.75-7.12-.37-10.37-2.24a32.25,32.25,0,0,1-6.25-5.24,43.92,43.92,0,0,1-5.25-7.36A56.47,56.47,0,0,1,54.3,64.43c-.87-2.37-1.75-4.74-2.37-7.11a.46.46,0,0,0-.12-.25,6.13,6.13,0,0,0,.25,1.63,106.39,106.39,0,0,1,1.62,10.85,61.9,61.9,0,0,1,0,10.72,31.68,31.68,0,0,1-3,11.22,15.1,15.1,0,0,1-7.37,7.61,9.6,9.6,0,0,1-8.62-.25,11.15,11.15,0,0,1-5.38-6.49,19.2,19.2,0,0,1-.62-9.22,38.79,38.79,0,0,1,4.75-12.85,67.11,67.11,0,0,1,5.75-8.48,57.79,57.79,0,0,1,4.5-5.24,12.56,12.56,0,0,1,1.62-2Z" transform="translate(0 0)"/></svg>