<?xml version="1.0" encoding="UTF-8"?>
<svg id="Capa_1" data-name="Capa 1" xmlns="http://www.w3.org/2000/svg" viewBox="0 0 154 35">
  <defs>
    <style>
      .cls-1 {
        fill: #de0060;
      }
    </style>
  </defs>
  <path class="cls-1" d="m83.3.03c-.19.01-.8.05-1.35.09l-1,.07-.31.14c-1.17.52-1.95,1.02-2.54,1.63-.41.42-.63.74-.91,1.32-.52,1.06-.79,2.07-1.06,3.97-.09.65-.23,1.91-.26,2.32-.01.14-.03.25-.04.23-.05-.05-1.16-3.01-1.5-4-.23-.65-.33-.9-.53-1.24-.57-1.01-1.34-1.94-2.17-2.63-.74-.61-1.37-.92-2.14-1.05-.57-.09-1.68-.03-2.56.15-.71.14-1.42.44-2.06.85-.28.18-.83.59-1.18.89-.28.24-.3.26-.39.47-.34.79-.52,1.42-.63,2.22-.03.2-.05.65-.06,1.24l-.02.93.07.35c.16.77.38,1.41.71,2.08.4.79.82,1.38,1.5,2.08,1.24,1.26,2.56,2.1,4.61,2.94.16.07.29.12.29.13s-.25-.03-.54-.07c-1.28-.19-2.31-.28-3.32-.28-1.42,0-1.91.12-2.7.64-.79.53-1.55,1.41-2.29,2.66-.51.86-.73,1.32-1.11,2.33-.36.93-.4,1.69-.16,2.89.1.49.38,1.4.64,2.05.5,1.26.98,1.69,2.43,2.17.85.28.76.27,1.54.27,1.83,0,3.07-.17,4.14-.57.39-.14,1.15-.53,1.49-.75.69-.46,1.43-1.23,2.26-2.34.31-.42.87-1.23,1.11-1.64.1-.17.19-.3.2-.3.01.01-.07.52-.46,3.04l-.3,1.93v1.67c0,1.2,0,1.76.03,1.98.09.79.23,1.38.43,1.8.1.21.15.28.33.46.73.7,1.99,1.35,3.33,1.7.61.16.85.19,1.2.15,1.63-.16,2.84-.48,3.97-1.05.67-.34.63-.31,1.02-.82.5-.64.67-.91.87-1.32.32-.66.49-1.34.64-2.46.04-.33.04-.42.02-.59-.24-1.45-1.43-3.83-3.63-7.26-.03-.05.11.07.3.25.92.87,1.89,1.65,3.19,2.59.9.65,1.25.88,1.65,1.07.67.33,1.22.46,2.16.49.46.02,1.49,0,1.75-.04.08-.01.32-.14.79-.42,1.67-1,2.04-1.33,3.02-2.71.26-.36.26-.37.29-.59.02-.13.09-.64.17-1.14.18-1.19.21-1.46.25-1.98.07-.91-.04-1.9-.28-2.65-.06-.17-.07-.2-.73-.86-.39-.4-.77-.74-.89-.83-.28-.2-.73-.43-1.14-.57-.79-.28-2.63-.66-3.76-.78-1.08-.11-2.64-.11-3.5,0-.1.01-.19.02-.2.01s.06-.03.15-.06.48-.16.87-.3l.71-.25.28-.22c.96-.79,1.55-1.35,1.84-1.77.41-.59.84-1.5,1.04-2.24.28-1,.38-1.61.4-2.4.03-1.01-.11-1.8-.5-2.94-.39-1.15-.51-1.37-1.07-1.93-.99-1-2.21-1.33-4.4-1.2Z"/>
  <path class="cls-1" d="m142.8.03c-.19.01-.8.05-1.35.09l-1,.07-.31.14c-1.17.52-1.95,1.02-2.54,1.63-.41.42-.63.74-.91,1.32-.52,1.06-.79,2.07-1.06,3.97-.09.65-.23,1.91-.26,2.32-.01.14-.03.25-.04.23-.05-.05-1.16-3.01-1.5-4-.23-.65-.33-.9-.53-1.24-.57-1.01-1.34-1.94-2.17-2.63-.74-.61-1.37-.92-2.14-1.05-.57-.09-1.68-.03-2.56.15-.71.14-1.42.44-2.06.85-.28.18-.83.59-1.18.89-.28.24-.3.26-.39.47-.34.79-.52,1.42-.63,2.22-.03.2-.05.65-.06,1.24l-.02.93.07.35c.16.77.38,1.41.71,2.08.4.79.82,1.38,1.5,2.08,1.24,1.26,2.56,2.1,4.61,2.94.16.07.29.12.29.13s-.25-.03-.54-.07c-1.28-.19-2.31-.28-3.32-.28-1.42,0-1.91.12-2.7.64-.79.53-1.55,1.41-2.29,2.66-.51.86-.73,1.32-1.11,2.33-.36.93-.4,1.69-.16,2.89.1.49.38,1.4.64,2.05.5,1.26.98,1.69,2.43,2.17.85.28.76.27,1.54.27,1.83,0,3.07-.17,4.14-.57.39-.14,1.15-.53,1.49-.75.69-.46,1.43-1.23,2.26-2.34.31-.42.87-1.23,1.11-1.64.1-.17.19-.3.2-.3.01.01-.07.52-.46,3.04l-.3,1.93v1.67c0,1.2,0,1.76.03,1.98.09.79.23,1.38.43,1.8.1.21.15.28.33.46.73.7,1.99,1.35,3.33,1.7.61.16.85.19,1.2.15,1.63-.16,2.84-.48,3.97-1.05.67-.34.63-.31,1.02-.82.5-.64.67-.91.87-1.32.32-.66.49-1.34.64-2.46.04-.33.04-.42.02-.59-.24-1.45-1.43-3.83-3.63-7.26-.03-.05.11.07.3.25.92.87,1.89,1.65,3.19,2.59.9.65,1.25.88,1.65,1.07.67.33,1.22.46,2.16.49.46.02,1.49,0,1.75-.04.08-.01.32-.14.79-.42,1.67-1,2.04-1.33,3.02-2.71.26-.36.26-.37.29-.59.02-.13.09-.64.17-1.14.18-1.19.21-1.46.25-1.98.07-.91-.04-1.9-.28-2.65-.06-.17-.07-.2-.73-.86-.39-.4-.77-.74-.89-.83-.28-.2-.73-.43-1.14-.57-.79-.28-2.63-.66-3.76-.78-1.08-.11-2.64-.11-3.5,0-.1.01-.19.02-.2.01s.06-.03.15-.06.48-.16.87-.3l.71-.25.28-.22c.96-.79,1.55-1.35,1.84-1.77.41-.59.84-1.5,1.04-2.24.28-1,.38-1.61.4-2.4.03-1.01-.11-1.8-.5-2.94-.39-1.15-.51-1.37-1.07-1.93-.99-1-2.21-1.33-4.4-1.2Z"/>
  <path class="cls-1" d="m23.8.03c-.19.01-.8.05-1.35.09l-1,.07-.31.14c-1.17.52-1.95,1.02-2.54,1.63-.41.42-.63.74-.91,1.32-.52,1.06-.79,2.07-1.06,3.97-.09.65-.23,1.91-.26,2.32-.01.14-.03.25-.04.23-.05-.05-1.16-3.01-1.5-4-.23-.65-.33-.9-.53-1.24-.57-1.01-1.34-1.94-2.17-2.63-.74-.61-1.37-.92-2.14-1.05-.57-.09-1.68-.03-2.56.15-.71.14-1.42.44-2.06.85-.28.18-.83.59-1.18.89-.28.24-.3.26-.39.47-.34.79-.52,1.42-.63,2.22-.03.2-.05.65-.06,1.24l-.02.93.07.35c.16.77.38,1.41.71,2.08.4.79.82,1.38,1.5,2.08,1.24,1.26,2.56,2.1,4.61,2.94.16.07.29.12.29.13s-.25-.03-.54-.07c-1.28-.19-2.31-.28-3.32-.28-1.42,0-1.91.12-2.7.64-.79.53-1.55,1.41-2.29,2.66-.51.86-.73,1.32-1.11,2.33-.36.93-.4,1.69-.16,2.89.1.49.38,1.4.64,2.05.5,1.26.98,1.69,2.43,2.17.85.28.76.27,1.54.27,1.83,0,3.07-.17,4.14-.57.39-.14,1.15-.53,1.49-.75.69-.46,1.43-1.23,2.26-2.34.31-.42.87-1.23,1.11-1.64.1-.17.19-.3.2-.3.01.01-.07.52-.46,3.04l-.3,1.93v1.67c0,1.2,0,1.76.03,1.98.09.79.23,1.38.43,1.8.1.21.15.28.33.46.73.7,1.99,1.35,3.33,1.7.61.16.85.19,1.2.15,1.63-.16,2.84-.48,3.97-1.05.67-.34.63-.31,1.02-.82.5-.64.67-.91.87-1.32.32-.66.49-1.34.64-2.46.04-.33.04-.42.02-.59-.24-1.45-1.43-3.83-3.63-7.26-.03-.05.11.07.3.25.92.87,1.89,1.65,3.19,2.59.9.65,1.25.88,1.65,1.07.67.33,1.22.46,2.16.49.46.02,1.49,0,1.75-.04.08-.01.32-.14.79-.42,1.67-1,2.04-1.33,3.02-2.71.26-.36.26-.37.29-.59.02-.13.09-.64.17-1.14.18-1.19.21-1.46.25-1.98.07-.91-.04-1.9-.28-2.65-.06-.17-.07-.2-.73-.86-.39-.4-.77-.74-.89-.83-.28-.2-.73-.43-1.14-.57-.79-.28-2.63-.66-3.76-.78-1.08-.11-2.64-.11-3.5,0-.1.01-.19.02-.2.01s.06-.03.15-.06.48-.16.87-.3l.71-.25.28-.22c.96-.79,1.55-1.35,1.84-1.77.41-.59.84-1.5,1.04-2.24.28-1,.38-1.61.4-2.4.03-1.01-.11-1.8-.5-2.94-.39-1.15-.51-1.37-1.07-1.93C27.22.23,26-.1,23.8.03Z"/>
</svg>