<?xml version="1.0" encoding="utf-8"?>
<!-- Generator: Adobe Illustrator 26.0.0, SVG Export Plug-In . SVG Version: 6.00 Build 0)  -->
<svg version="1.1" id="Capa_1" xmlns="http://www.w3.org/2000/svg" xmlns:xlink="http://www.w3.org/1999/xlink" x="0px" y="0px"
	 viewBox="0 0 100 100" style="enable-background:new 0 0 100 100;" xml:space="preserve">
<style type="text/css">
	.st0{fill:#FF7E01;}
</style>
<path class="st0" d="M45.3,54.6c-0.5,0.2-1,0.6-1.4,1.1c-2.1,2-4.5,3.9-6.9,5.5c-3.6,2.6-7.5,4.9-11.6,6.7
	c-3.3,1.4-6.6,2.4-10.3,2.6c-2.3,0.2-4.6,0-6.9-0.7c-2.9-0.9-5.3-2.5-6.9-5.1c-1.3-2-1.8-4.5-1.3-6.9c0.6-3.1,2.4-5.5,4.9-7.5
	c1.9-1.5,4.1-2.6,6.4-3.4c4.3-1.5,8.6-1.9,13.1-1.7c5,0.1,10,0.7,14.9,1.9c1.3,0.2,2.5,0.6,3.9,0.7l-2.1-0.7c-4-1.4-8-3.1-11.8-5.1
	c-2.6-1.4-5.1-3-7.5-4.7c-3.4-2.5-6.3-5.4-8.5-9.1c-1.6-2.7-2.6-5.7-2.4-9c0.1-2.2,0.9-4.4,2.3-6c1.3-1.5,3-2.6,4.9-3
	c3.3-0.9,6.4-0.2,9.4,1.2c2.6,1.4,5,3.1,7,5.2c2.9,3.1,5.3,6.5,7.3,10.2c2.1,3.9,3.8,8,5.1,12.1c0.4,1.1,0.8,2.4,1.1,3.5
	c0.1,0.2,0.3,0.5,0.4,0.7c-0.3-1-0.4-2-0.6-2.9c-0.6-3-1-6-1.4-9c-0.4-3.4-0.4-6.7-0.3-10.1c0.1-3.4,0.9-6.7,1.9-9.8
	c0.8-2.1,1.8-4.1,3.1-6c2-2.6,4.5-4.6,7.8-5.2c2.9-0.6,5.8,0.1,8,2c2.5,2,3.9,4.9,4.5,8c0.5,2.9,0.4,5.7-0.4,8.5
	c-1.1,4.9-3.3,9.3-5.9,13.5c-1.4,2.1-2.8,4.1-4.4,6.1c-1.8,2.1-3.5,4.2-5.5,6.2c0,0.1-0.1,0.1-0.1,0.2c0.1,0,0.4,0,0.5-0.1
	c1.9-1.7,3.9-3.5,6-5c3.4-2.6,7-4.9,10.8-6.7c2.4-1.1,4.8-2,7.3-2.7c4.4-1.1,8.8-1.5,13.1,0.2c2.4,0.9,4.4,2.5,5.6,4.6
	c2.1,3.5,2,7,0.1,10.5c-1.6,2.9-4.1,4.7-7,6.2c-3.4,1.6-6.9,2.4-10.5,2.7c-4.5,0.5-9,0.1-13.5-0.4c-3.5-0.5-6.9-1.1-10.3-2h-0.4
	c0.9,0.4,1.8,0.6,2.6,0.9c3.1,1.1,6.1,2.4,9.1,3.7c2.9,1.4,5.8,3.1,8.4,5c2.1,1.5,4.3,3.2,6,5.2c0.9,0.9,1.6,1.9,2.4,3
	c1.5,2.1,2.6,4.2,3.1,6.7c0.5,2.5,0.6,4.9-0.4,7.2c-1.4,3.2-3.8,5.2-7.1,5.9c-3.8,0.7-7.1-0.4-10.4-2.2c-2.4-1.5-4.4-3.2-6.3-5.2
	c-2-2.2-3.8-4.7-5.3-7.4c-2-3.4-3.6-6.9-4.9-10.5c-0.9-2.4-1.8-4.7-2.4-7.1c0-0.1-0.1-0.2-0.1-0.2c0,0.6,0.1,1.1,0.3,1.6
	c0.8,3.6,1.3,7.2,1.6,10.8c0.4,3.5,0.3,7.1,0,10.7c-0.4,3.9-1.3,7.7-3,11.2c-1.6,3.4-4,6.1-7.4,7.6c-2.9,1.2-5.8,1.2-8.6-0.2
	c-2.6-1.4-4.4-3.6-5.4-6.5c-1-3-1.1-6.1-0.6-9.2c0.8-4.6,2.5-8.9,4.8-12.8c1.8-3,3.6-5.9,5.8-8.5c1.4-1.9,2.9-3.5,4.5-5.2
	C44.2,55.8,44.7,55.2,45.3,54.6L45.3,54.6z"/>
</svg>
