<?xml version="1.0" encoding="UTF-8"?>
<svg id="Capa_1" data-name="Capa 1" xmlns="http://www.w3.org/2000/svg" viewBox="0 0 180 180">
  <defs>
    <style>
      .cls-1 {
        fill: #ff7e01;
      }
    </style>
  </defs>
  <path class="cls-1" d="m122.42.14c-1,.06-4.14.27-6.96.47l-5.13.37-1.62.71c-6.03,2.69-10.01,5.23-13.08,8.37-2.1,2.15-3.24,3.8-4.7,6.77-2.67,5.43-4.06,10.63-5.43,20.4-.46,3.33-1.2,9.81-1.35,11.91-.06.72-.14,1.27-.21,1.21-.25-.27-5.98-15.49-7.74-20.58-1.17-3.34-1.72-4.65-2.7-6.4-2.94-5.22-6.88-9.99-11.17-13.53-3.8-3.13-7.05-4.73-11.01-5.4-2.91-.48-8.66-.17-13.15.75-3.66.74-7.33,2.26-10.62,4.39-1.43.92-4.25,3.04-6.09,4.58-1.46,1.22-1.55,1.32-2.01,2.4-1.76,4.08-2.67,7.32-3.24,11.43-.14,1.05-.24,3.33-.3,6.4l-.08,4.76.38,1.82c.82,3.97,1.96,7.26,3.67,10.69,2.04,4.08,4.23,7.11,7.74,10.67,6.39,6.5,13.17,10.82,23.73,15.12.83.34,1.49.64,1.48.65s-1.27-.16-2.77-.37c-6.57-.98-11.87-1.42-17.06-1.42-7.31,0-9.8.6-13.88,3.31-4.08,2.73-7.99,7.26-11.79,13.69-2.6,4.42-3.74,6.81-5.72,11.98-1.84,4.78-2.05,8.7-.83,14.87.49,2.53,1.94,7.19,3.28,10.56,2.56,6.48,5.04,8.7,12.49,11.17,4.35,1.44,3.91,1.36,7.93,1.36,9.41,0,15.8-.87,21.31-2.91,1.98-.72,5.92-2.73,7.65-3.88,3.56-2.37,7.36-6.31,11.63-12.04,1.6-2.15,4.46-6.34,5.72-8.43.53-.87,1-1.56,1.03-1.54.06.06-.34,2.66-2.38,15.65l-1.56,9.95v8.6c-.03,6.17.03,9.04.15,10.16.46,4.07,1.2,7.11,2.19,9.24.51,1.07.79,1.45,1.72,2.36,3.74,3.62,10.25,6.94,17.15,8.73,3.14.81,4.36.97,6.16.78,8.38-.81,14.61-2.47,20.41-5.42,3.45-1.75,3.24-1.59,5.25-4.19,2.55-3.31,3.46-4.69,4.47-6.81,1.63-3.38,2.53-6.88,3.28-12.65.21-1.69.23-2.15.08-3.03-1.25-7.45-7.37-19.67-18.69-37.34-.15-.24.55.34,1.55,1.29,4.75,4.48,9.71,8.49,16.39,13.3,4.63,3.33,6.44,4.51,8.51,5.51,3.46,1.71,6.29,2.35,11.11,2.54,2.35.1,7.68-.03,9.02-.2.39-.06,1.63-.71,4.08-2.17,8.59-5.15,10.51-6.85,15.56-13.92,1.34-1.88,1.35-1.89,1.51-3.06.1-.65.48-3.3.86-5.87.9-6.13,1.08-7.52,1.28-10.16.35-4.7-.18-9.76-1.45-13.64-.3-.9-.38-1.01-3.76-4.41-2.03-2.03-3.94-3.82-4.6-4.29-1.43-1.02-3.74-2.19-5.84-2.93-4.06-1.44-13.53-3.4-19.33-4.01-5.56-.58-13.57-.58-18,0-.53.07-1,.1-1.03.07s.32-.16.77-.28,2.46-.81,4.46-1.52l3.64-1.28,1.42-1.15c4.94-4.05,7.98-6.96,9.48-9.13,2.11-3.01,4.3-7.72,5.37-11.51,1.45-5.15,1.97-8.27,2.07-12.34.14-5.19-.55-9.24-2.56-15.12-2.01-5.91-2.64-7.06-5.49-9.92-5.08-5.15-11.37-6.85-22.65-6.17Z"/>
</svg>