<?xml version="1.0" encoding="UTF-8"?>
<svg id="Capa_1" data-name="Capa 1" xmlns="http://www.w3.org/2000/svg" viewBox="0 0 180 180">
  <defs>
    <style>
      .cls-1 {
        fill: #ff7e01;
      }
    </style>
  </defs>
  <path class="cls-1" d="m81.57,98.24c-.9.45-1.8,1.12-2.47,2.02-3.82,3.59-8.1,6.96-12.37,9.88-6.52,4.71-13.5,8.75-20.92,12.12-5.85,2.47-11.92,4.26-18.45,4.71-4.05.45-8.32,0-12.37-1.35-5.17-1.57-9.45-4.49-12.37-9.2-2.25-3.59-3.15-8.08-2.25-12.34,1.12-5.61,4.27-9.88,8.77-13.47,3.37-2.69,7.42-4.71,11.47-6.06,7.65-2.69,15.52-3.37,23.62-3.14,9,.22,18,1.35,26.77,3.37,2.25.45,4.5,1.12,6.97,1.35l-3.82-1.35c-7.2-2.47-14.4-5.61-21.15-9.2-4.72-2.47-9.22-5.39-13.5-8.53-6.07-4.49-11.25-9.65-15.3-16.38-2.92-4.94-4.72-10.32-4.27-16.16.22-4.04,1.57-7.86,4.05-10.77,2.25-2.69,5.4-4.71,8.77-5.39,5.85-1.57,11.47-.45,16.87,2.24,4.72,2.47,9,5.61,12.6,9.43,5.17,5.61,9.45,11.67,13.05,18.4,3.82,6.96,6.75,14.36,9.22,21.77.67,2.02,1.35,4.26,2.02,6.28.22.45.45.9.67,1.35-.45-1.8-.67-3.59-1.12-5.16-1.12-5.39-1.8-10.77-2.47-16.16-.67-6.06-.67-12.12-.45-18.18.22-6.06,1.57-12.12,3.37-17.73,1.35-3.82,3.15-7.41,5.62-10.77,3.6-4.71,8.1-8.3,13.95-9.43,5.17-1.12,10.35.22,14.4,3.59,4.5,3.59,6.97,8.75,8.1,14.36.9,5.16.67,10.32-.67,15.26-2.02,8.75-5.85,16.83-10.57,24.24-2.47,3.82-4.95,7.41-7.87,11-3.15,3.82-6.3,7.63-9.9,11.22,0,.22-.22.22-.22.45.22,0,.67,0,.9-.22,3.37-3.14,6.97-6.28,10.8-8.98,6.07-4.71,12.6-8.75,19.35-12.12,4.27-2.02,8.55-3.59,13.05-4.94,7.87-2.02,15.75-2.69,23.62.45,4.27,1.57,7.87,4.49,10.12,8.3,3.82,6.28,3.6,12.57.22,18.85-2.92,5.16-7.42,8.53-12.6,11.22-6.07,2.92-12.37,4.26-18.9,4.94-8.1.9-16.2.22-24.3-.67-6.3-.9-12.37-2.02-18.45-3.59h-.67c1.57.67,3.15,1.12,4.72,1.57,5.62,2.02,11.02,4.26,16.42,6.73,5.17,2.47,10.35,5.61,15.07,8.98,3.82,2.69,7.65,5.84,10.8,9.43,1.57,1.57,2.92,3.37,4.27,5.39,2.7,3.82,4.72,7.63,5.62,12.12s1.12,8.75-.67,13.02c-2.47,5.84-6.75,9.43-12.82,10.55-6.75,1.35-12.82-.67-18.67-4.04-4.27-2.69-7.87-5.84-11.25-9.43-3.6-4.04-6.75-8.53-9.45-13.24-3.6-6.06-6.52-12.34-8.77-18.85-1.57-4.26-3.15-8.53-4.27-12.79,0-.22-.22-.45-.22-.45,0,1.12.22,2.02.45,2.92,1.35,6.51,2.25,13.02,2.92,19.53.67,6.28.45,12.79,0,19.3-.67,6.96-2.25,13.92-5.4,20.2-2.92,6.06-7.2,11-13.27,13.69-5.17,2.24-10.35,2.24-15.52-.45-4.72-2.47-7.87-6.51-9.67-11.67-1.8-5.39-2.02-11-1.12-16.61,1.35-8.3,4.5-15.94,8.55-23.12,3.15-5.39,6.52-10.55,10.35-15.26,2.47-3.37,5.17-6.28,8.1-9.43.9-1.35,1.8-2.47,2.92-3.59Z"/>
</svg>