<?xml version="1.0" encoding="utf-8"?>
<!-- Generator: Adobe Illustrator 26.0.0, SVG Export Plug-In . SVG Version: 6.00 Build 0)  -->
<svg version="1.1" id="Capa_1" xmlns="http://www.w3.org/2000/svg" xmlns:xlink="http://www.w3.org/1999/xlink" x="0px" y="0px"
	 viewBox="0 0 40 45" style="enable-background:new 0 0 40 45;" xml:space="preserve">
<style type="text/css">
	.st0{fill:#DE0061;}
</style>
<g>
	<path class="st0" d="M34.6,14.5c0,2.8-0.7,5.4-2.2,7.7c-3.6,5.6-7.3,11.3-11,16.9c-0.9,1.4-1.9,1.4-2.8,0
		C15,33.5,11.2,27.9,7.7,22.2C4.6,17.2,4.5,12,7.5,7c3-5,7.7-7.3,13.6-7C28.6,0.4,34.6,6.9,34.6,14.5L34.6,14.5z M20,7.9
		c-3.6,0-6.6,3-6.6,6.6c0,3.6,3,6.6,6.6,6.6c3.7,0,6.7-3,6.7-6.6C26.6,10.8,23.7,7.9,20,7.9L20,7.9z"/>
	<path class="st0" d="M21.2,45c-6.2-0.1-11.1-0.5-15.7-2.5c-1.5-0.6-3-1.6-4.2-2.7c-1.7-1.5-1.7-3.7-0.1-5.5c1.7-2,4.1-2.8,6.5-3.6
		c1.9-0.6,1.9-0.5,2.9,1.1c1.8,2.8,3.6,5.5,5.4,8.3c2.1,3.3,5.8,3.3,8,0c2-3,3.9-6.1,5.9-9.1c0.4-0.6,0.7-0.8,1.4-0.5
		c1.9,0.8,4.1,1.4,5.9,2.4c3.9,2.3,3.8,5.9,0,8.3c-2.7,1.7-5.7,2.5-8.9,3C25.5,44.7,22.8,44.8,21.2,45L21.2,45z"/>
</g>
</svg>
