<?xml version="1.0" encoding="UTF-8"?>
<svg id="Capa_1" data-name="Capa 1" xmlns="http://www.w3.org/2000/svg" viewBox="0 0 40 40">
  <defs>
    <style>
      .cls-1 {
        fill: #de0061;
      }
    </style>
  </defs>
  <path class="cls-1" d="m31.35,40c-3.63-.37-6.87-1.62-9.89-3.41C12.66,31.37,5.89,24.21,1.61,14.73.61,12.51-.02,10.16,0,7.68c.01-1.56.44-2.94,1.6-4.02.92-.85,1.75-1.81,2.73-2.57,1.77-1.38,3.68-1.46,5.39-.15,2.43,1.86,4.12,4.33,4.99,7.3.63,2.16-.16,4.03-1.65,5.49-1.14,1.12-1.11,2.23-.24,3.37,1.64,2.14,3.36,4.24,5.24,6.17,1.42,1.46,3.05,2.77,4.74,3.9,1.78,1.19,2.28.76,3.34-.31.78-.79,1.73-1.42,2.68-2,1.42-.86,2.99-.92,4.53-.43,2.25.71,4.12,2.04,5.55,3.94,1.39,1.85,1.41,3.83.31,5.83-1.07,1.93-2.61,3.48-4.4,4.66-.98.65-2.3.78-3.46,1.15Z"/>
</svg>