<?xml version="1.0" encoding="UTF-8"?>
<svg id="Capa_1" data-name="Capa 1" xmlns="http://www.w3.org/2000/svg" viewBox="0 0 40 40">
  <defs>
    <style>
      .cls-1 {
        fill: #de0061;
      }
    </style>
  </defs>
  <path class="cls-1" d="m36.17,40H2.79c.25-.21.41-.36.59-.49,3.81-2.89,7.62-5.78,11.42-8.69.37-.29.59-.25.91.04,1.02.89,2.05,1.76,3.09,2.64.72.62,1.31.64,2.04.04.99-.8,1.98-1.61,2.95-2.43.27-.23.47-.27.77-.03,3.78,2.9,7.57,5.78,11.36,8.67.07.05.13.13.25.26Z"/>
  <path class="cls-1" d="m4.72,7.12v11.06c-.77-.65-1.42-1.18-2.06-1.73-.76-.64-1.49-1.32-2.29-1.92-.49-.36-.41-.7-.06-1,.55-.48,1.13-.95,1.75-1.33.49-.29.68-.61.66-1.17-.05-1.21-.02-2.43-.01-3.65,0-1.4.78-2.19,2.23-2.2,2.14-.02,4.27-.02,6.41,0,.64,0,1.15-.15,1.67-.52,1.99-1.41,4-2.78,6-4.16.99-.68,1.18-.67,2.19.04,2.04,1.44,4.07,2.88,6.13,4.29.29.2.7.32,1.05.32,2.12.03,4.23.01,6.35.02,1.72,0,2.47.73,2.47,2.4,0,1.24.01,2.47,0,3.71,0,.36.11.57.42.76.51.31,1.02.63,1.48,1.02.31.26.57.61.76.96.09.18.07.57-.06.68-1.46,1.25-2.96,2.47-4.58,3.81V7.12H4.72Z"/>
  <path class="cls-1" d="m26.25,29.11c4.55-3.72,9.07-7.42,13.7-11.21.02.36.04.57.04.77,0,6.32,0,12.63,0,18.95,0,.33-.02.67-.1.99-.17.64-.37.7-.89.29-1.66-1.27-3.33-2.54-4.99-3.81-2.47-1.89-4.94-3.77-7.41-5.66-.11-.08-.2-.18-.35-.32Z"/>
  <path class="cls-1" d="m0,38.88v-21.33c4.46,3.78,8.83,7.48,13.27,11.24-4.42,3.36-8.77,6.67-13.27,10.08Z"/>
  <path class="cls-1" d="m21.36,21.36c-.77.26-1.42.61-2.1.69-1.4.17-2.32-.5-2.78-1.82-.72-2.06.19-4.99,1.93-6.21,1.36-.96,3.63-.89,4.91.18.14.11.23.37.22.55-.13,1.46-.29,2.93-.44,4.39-.01.12-.06.25-.02.35.1.26.19.62.39.71.21.09.67,0,.8-.17.34-.44.7-.94.81-1.47.38-1.82.4-3.62-.76-5.25-.74-1.02-1.8-1.51-3.02-1.63-2.88-.3-4.92.93-5.94,3.57-.7,1.81-.8,3.68-.25,5.54.52,1.76,2.15,2.92,4.27,2.95.95.02,1.91-.21,2.85-.39.41-.08.6-.12.73.36.36,1.3.36,1.36-.98,1.73-2.16.59-4.27.43-6.27-.59-1.64-.83-2.57-2.25-2.95-3.96-.51-2.31-.39-4.6.65-6.79,1.42-2.97,4.48-4.62,7.83-4.29,2.19.22,4.08.98,5.15,2.91,1.43,2.59,1.56,5.27-.03,7.89-.89,1.47-3.59,2.22-4.99.74Zm-.27-5.98c-.98-.06-1.55.18-1.8.93-.27.79-.43,1.62-.49,2.45-.06.8.27,1.25.73,1.32.47.07,1.05-.39,1.18-1.13.19-1.17.26-2.35.39-3.57Z"/>
</svg>