<?xml version="1.0" encoding="UTF-8"?>
<svg id="Capa_1" data-name="Capa 1" xmlns="http://www.w3.org/2000/svg" viewBox="0 0 35 40.05">
  <defs>
    <style>
      .cls-1 {
        fill: #de0061;
      }
    </style>
  </defs>
  <path class="cls-1" d="m30.29,12.92c.04,2.49-.64,4.79-1.96,6.88-3.18,5.02-6.38,10.03-9.59,15.03-.79,1.24-1.67,1.24-2.46,0-3.2-5.01-6.45-9.98-9.57-15.05-2.71-4.41-2.8-9.03-.16-13.48C9.2,1.85,13.31-.21,18.45.07c6.6.36,11.82,6.08,11.84,12.84Zm-12.81-5.82c-3.18,0-5.82,2.65-5.8,5.83.01,3.19,2.65,5.83,5.82,5.84,3.2.01,5.89-2.7,5.85-5.9-.04-3.2-2.66-5.78-5.86-5.77Z"/>
  <path class="cls-1" d="m18.57,40.05c-5.43-.1-9.72-.48-13.74-2.19-1.34-.57-2.62-1.43-3.7-2.41-1.5-1.36-1.47-3.3-.11-4.87,1.52-1.75,3.6-2.53,5.73-3.19,1.63-.51,1.64-.48,2.56.97,1.57,2.46,3.13,4.93,4.71,7.4,1.88,2.94,5.11,2.93,6.99-.01,1.72-2.7,3.45-5.41,5.15-8.13.31-.5.58-.75,1.21-.48,1.7.74,3.55,1.22,5.12,2.17,3.39,2.07,3.33,5.23,0,7.4-2.35,1.54-5.02,2.25-7.75,2.67-2.4.37-4.83.52-6.16.65Z"/>
</svg>