<svg id="Capa_1" data-name="Capa 1" xmlns="http://www.w3.org/2000/svg" viewBox="0 0 150 149.96"><defs><style>.cls-1{fill:#e9501d;}</style></defs><path class="cls-1" d="M50,75a25,25,0,1,1,25,24.94A25,25,0,0,1,50,75Zm-13.5,0A38.51,38.51,0,1,0,75,36.49h0A38.51,38.51,0,0,0,36.56,75.07h0ZM106,34.84a9,9,0,1,0,9-9,9,9,0,0,0-9,9h0ZM44.85,136a41,41,0,0,1-13.91-2.55,23.36,23.36,0,0,1-8.63-5.66,22.82,22.82,0,0,1-5.62-8.62,41.11,41.11,0,0,1-2.59-13.92C13.72,97.38,13.65,95,13.61,75s0-22.39.38-30.3a40.77,40.77,0,0,1,2.55-13.91A23.74,23.74,0,0,1,22.2,22.2a22.84,22.84,0,0,1,8.62-5.63A40.85,40.85,0,0,1,44.73,14c7.92-.38,10.28-.45,30.3-.49s22.39,0,30.3.37a41,41,0,0,1,13.91,2.55,24.79,24.79,0,0,1,14.21,14.22A41.05,41.05,0,0,1,136,44.55c.38,7.91.45,10.27.49,30.3s0,22.38-.38,30.29a40.83,40.83,0,0,1-2.55,13.92,23.28,23.28,0,0,1-5.66,8.62,22.82,22.82,0,0,1-8.62,5.62,41.05,41.05,0,0,1-13.91,2.59c-7.92.38-10.28.45-30.3.49s-22.39,0-30.3-.38h.07ZM44,.52A54.83,54.83,0,0,0,25.76,4.05a36.65,36.65,0,0,0-13.27,8.66A37,37,0,0,0,3.86,26,55.13,55.13,0,0,0,.41,44.21C0,52.23,0,54.78,0,75.15S.15,98.06.52,106a54.83,54.83,0,0,0,3.53,18.19,38.26,38.26,0,0,0,22,21.9,54.84,54.84,0,0,0,18.19,3.45c8,.34,10.54.41,30.9.37s22.91-.11,30.9-.48a55.25,55.25,0,0,0,18.22-3.53,38.31,38.31,0,0,0,21.9-22,54.75,54.75,0,0,0,3.45-18.19c.37-8,.45-10.54.41-30.9S149.88,52,149.5,44A55.24,55.24,0,0,0,146,25.76a38.31,38.31,0,0,0-22-21.9A54.84,54.84,0,0,0,105.82.41C97.83,0,95.24,0,74.88,0S52,.15,44,.52Z"/></svg>