<svg id="Capa_1" data-name="Capa 1" xmlns="http://www.w3.org/2000/svg" viewBox="0 0 20.18 19.66"><defs><style>.cls-1{fill:#fff;}.cls-2{fill:none;stroke:#fff;stroke-miterlimit:10;stroke-width:0.75px;}.cls-3{fill:#f8a30e;}</style></defs><path class="cls-1" d="M11.33,8C18.88-.24,5.75-3.15,9.1,7.5,5.75-3.15-3.34,6.76,7.56,9.18c-10.9-2.42-6.85,10.41.69,2.18-7.54,8.23,5.58,11.14,2.23.49,3.35,10.65,12.44.73,1.54-1.68C22.92,12.58,18.88-.24,11.33,8Z"/><path class="cls-2" d="M11.33,8C18.88-.24,5.75-3.15,9.1,7.5,5.75-3.15-3.34,6.76,7.56,9.18c-10.9-2.42-6.85,10.41.69,2.18-7.54,8.23,5.58,11.14,2.23.49,3.35,10.65,12.44.73,1.54-1.68C22.92,12.58,18.88-.24,11.33,8Z"/><circle class="cls-3" cx="9.79" cy="9.67" r="3.73"/></svg>