<?xml version="1.0" encoding="utf-8"?>
<!-- Generator: Adobe Illustrator 27.2.0, SVG Export Plug-In . SVG Version: 6.00 Build 0)  -->
<svg version="1.1" id="Capa_1" xmlns="http://www.w3.org/2000/svg" xmlns:xlink="http://www.w3.org/1999/xlink" x="0px" y="0px"
	 viewBox="0 0 95 95" style="enable-background:new 0 0 95 95;" xml:space="preserve">
<style type="text/css">
	.st0{fill:#FF7E01;}
</style>
<path class="st0" d="M31.7,47.5c0-8.7,7.1-15.8,15.8-15.9c8.7,0,15.8,7.1,15.9,15.8c0,8.7-7.1,15.8-15.8,15.9
	C38.8,63.3,31.7,56.3,31.7,47.5C31.7,47.5,31.7,47.5,31.7,47.5z M23.1,47.5c0,13.5,10.9,24.4,24.4,24.4s24.4-10.9,24.4-24.4
	S60.9,23.1,47.5,23.1c0,0,0,0,0,0C34,23.1,23.1,34.1,23.1,47.5L23.1,47.5z M67.1,22.1c0,3.1,2.6,5.7,5.7,5.7c3.1,0,5.7-2.6,5.7-5.7
	c0-3.1-2.6-5.7-5.7-5.7C69.6,16.4,67.1,19,67.1,22.1L67.1,22.1z M28.4,86.2c-3,0-6-0.6-8.8-1.6c-2.1-0.8-3.9-2-5.5-3.6
	c-1.6-1.5-2.8-3.4-3.6-5.5c-1.1-2.8-1.6-5.8-1.6-8.8c-0.2-5-0.3-6.5-0.3-19.2s0-14.2,0.2-19.2c0-3,0.6-6,1.6-8.8
	c0.8-2.1,2-3.9,3.6-5.4c1.5-1.6,3.4-2.8,5.5-3.6c2.8-1.1,5.8-1.6,8.8-1.6c5-0.2,6.5-0.3,19.2-0.3s14.2,0,19.2,0.2c3,0,6,0.6,8.8,1.6
	c4.1,1.6,7.4,4.9,9,9c1.1,2.8,1.6,5.8,1.7,8.8c0.2,5,0.3,6.5,0.3,19.2s0,14.2-0.2,19.2c0,3-0.6,6-1.6,8.8c-0.8,2.1-2,3.9-3.6,5.5
	c-1.5,1.6-3.4,2.8-5.5,3.6c-2.8,1.1-5.8,1.6-8.8,1.7c-5,0.2-6.5,0.3-19.2,0.3S33.4,86.4,28.4,86.2L28.4,86.2z M27.8,0.3
	C23.9,0.4,20,1.2,16.3,2.6c-3.2,1.2-6,3.1-8.4,5.5c-2.4,2.4-4.3,5.3-5.5,8.4C1.1,20.2,0.3,24.1,0.2,28C0,33.1,0,34.7,0,47.6
	s0.1,14.5,0.3,19.6c0.1,3.9,0.8,7.8,2.2,11.5c1.2,3.2,3.1,6,5.5,8.4c2.4,2.4,5.3,4.3,8.4,5.5c3.7,1.4,7.6,2.1,11.5,2.2
	C33.1,95,34.7,95,47.6,95s14.5-0.1,19.6-0.3c3.9-0.1,7.8-0.8,11.5-2.2c6.4-2.5,11.4-7.5,13.9-13.9c1.4-3.7,2.1-7.6,2.2-11.5
	C95,61.9,95,60.3,95,47.4s-0.1-14.5-0.3-19.6c-0.1-3.9-0.8-7.8-2.2-11.5C90,9.9,84.9,4.9,78.5,2.4C74.8,1.1,70.9,0.3,67,0.3
	C61.9,0,60.3,0,47.4,0S32.9,0.1,27.8,0.3z"/>
</svg>
